# xmcd
#
# Track frame offsets:
#	150
#	65442
#	89225
#	149220
#	181537
#	194802
#	202842
#	227817
#	243412
#	266275
#
# Disc length: 4190 seconds
#
# Revision: 1
# Processed by: cddbd v1.5.1PL0 Copyright (c) Steve Scherf et al.
# Submitted via: CDex 1.50Beta5
#
DISCID=95105c0a
DTITLE=陸上自衛隊中央音楽隊/野中図洋和 - バーンズ/交響曲第3番
DYEAR=1900
DGENRE=Classical
TTITLE0=Third Symphony op. 89: I. Lento
TTITLE1=Third Symphony op. 89: II. Scherzo. Allegro moderato
TTITLE2=Third Symphony op. 89: III. Mesto (for Natalie)
TTITLE3=Third Symphony op. 89: IV. Finale. Allegro giocoso
TTITLE4=Othello: I. Prelude (Venice)
TTITLE5=Othello: II. Aubade (Cyprus)
TTITLE6=Othello: III. Othello and Desdemona
TTITLE7=Othello: IV. Entrance of the Court
TTITLE8=Othello: V. The Death of Desdemona - Epilogue
TTITLE9=West Side Story Selection
EXTD=
EXTT0=
EXTT1=
EXTT2=
EXTT3=
EXTT4=
EXTT5=
EXTT6=
EXTT7=
EXTT8=
EXTT9=
PLAYORDER=
